# xmcd CD database file
# Copyright (C) 1996 Ti Kan
#
# Track frame offsets:
# 	183
# 	14000
# 	29308
# 	42443
# 	54463
# 	64830
# 	77375
# 	90325
# 	105805
# 	118925
#
# Disc length: 1730 seconds
#
# Revision: 1
# Processed by: cddbd v1.4b41PL1 Copyright (c) Steve Scherf et al.
# Submitted via: DiscPlay 3.4.1
#
DISCID=7306c00a
DTITLE=Reba McEntire - Unlimited
DYEAR=1900
DGENRE=
TTITLE0=I'd Say You
TTITLE1=Everything I'll Ever Own
TTITLE2=What Do You Know About Heartache?
TTITLE3=Out Of The Blue
TTITLE4=Over, Under And Around
TTITLE5=I'm Not That Lonely Yet
TTITLE6=Whoever's Watchin'
TTITLE7=Old Man River (I've Come To Talk Again)
TTITLE8=you're The First Time I've Thought About Leaving
TTITLE9=Can't Even Get The Blues No More
EXTD=
EXTT0=
EXTT1=
EXTT2=
EXTT3=
EXTT4=
EXTT5=
EXTT6=
EXTT7=
EXTT8=
EXTT9=
PLAYORDER=
